<?xml version="1.0"?>
<svg version="1.1" id="圖層_1" xmlns="http://www.w3.org/2000/svg" x="0" y="0" viewBox="0 0 100 100" xml:space="preserve"><path d="M23.65 54.046l1.54-1.54a4.916 4.916 0 0 0 0-6.951l-2.376-2.376a4.916 4.916 0 0 0-6.951 0l-1.188 1.188-2.662 2.662a6.902 6.902 0 0 0-1.041 8.408c7.569 12.742 17.724 22.897 30.465 30.465a6.902 6.902 0 0 0 8.408-1.041l2.662-2.662 1.188-1.188a4.916 4.916 0 0 0 0-6.951l-2.376-2.376a4.916 4.916 0 0 0-6.951 0l-1.54 1.54a2.125 2.125 0 0 1-2.835.161 110.883 110.883 0 0 1-16.506-16.506 2.125 2.125 0 0 1 .163-2.833z" fill="#333"/><g><path d="M41.484 13.128c.024 0 .047-.004.071-.004h42.728c1.235 0 2.375.408 3.31 1.089A5.837 5.837 0 0 1 90 18.922v22.267c0 3.157-2.56 5.637-5.717 5.637H56.401c-1.349 5.416-5.092 9.201-10.333 10.827V46.825h-4.513c-3.157 0-5.717-2.479-5.717-5.637V18.922c0-3.133 2.522-5.754 5.646-5.794z" fill="#abbd81"/><g><circle cx="76.937" cy="29.972" r="3.505" fill="#f5e6c8"/><circle cx="62.919" cy="29.972" r="3.505" fill="#fcedce"/><circle cx="48.901" cy="29.972" r="3.505" fill="#fff2d9"/></g></g><metadata xmlns:d="https://loading.io/stock/"><d:name>message</d:name><d:tags>replay,hang out,online,pause,voice,record,hold,phone,call,message,communication</d:tags><d:license>by</d:license><d:slug>l5q2ib</d:slug></metadata></svg>