<?xml version="1.0"?>
<svg version="1.1" id="圖層_1" xmlns="http://www.w3.org/2000/svg" x="0" y="0" viewBox="0 0 100 100" xml:space="preserve"><circle transform="rotate(-45.001 50 50)" cx="50" cy="50" fill="#fff" stroke="#e15b64" stroke-width="9.375" stroke-miterlimit="10" r="37.5"/><path d="M24.3 41.1c.3-.7 1.1-1 1.7-.7 4.1 1.5 6.9 2.7 11.3 3.7 4.8 1.1 9.6 2 14.5 2.8 4.8.8 7.6 1.4 12.5 1.9 2.4.3 3.8.5 6.2 0 1.2-.2 2.4-.6 3.6-1.1.9-.4 1.7-.8 2.6-1.4.4-.3 1 0 1 .5V53c0 .5-.6.8-1 .5-.9-.6-1.7-1-2.6-1.4-1.2-.5-2.4-.9-3.6-1.1-2.4-.5-3.8-.3-6.2 0-4.8.5-7.6 1.1-12.5 1.9-4.8.8-9.6 1.7-14.5 2.8-4.4 1.1-7.1 2.2-11.3 3.7-.7.2-1.4 0-1.7-.7-2.7-5.7-2.7-11.7 0-17.6z" fill="#333"/><path fill="none" stroke="#e15b64" stroke-width="8" stroke-miterlimit="10" d="M23.5 23.5l53 53"/><metadata xmlns:d="https://loading.io/stock/"><d:name>no horn</d:name><d:tags>traffic sign,road,caution,warning,no horn,transportation</d:tags><d:license>by</d:license><d:slug>kkff1g</d:slug></metadata></svg>